<svg class="diagram-root" style="background: #f5f6f6" xmlns="http://www.w3.org/2000/svg" xmlns:xlink="http://www.w3.org/1999/xlink"><style>.diagram-root { font-family: "Helvetica Neue", sans-serif; font-size: 12px; } .t { overflow: visible; } .t-bg { y: 40; fill: #fff;   } .th { fill: #005aa0;   } .tht { fill: #fff; font-size: 14px;  } .tf { fill: #323c46; overflow: visible; } .tf.pk { fill: #005aa0; font-weight: bold; } .tf.fk { font-weight: bold; } .ty { fill: #adb1b5; font-weight: normal; text-anchor: end; } .r { fill: transparent; stroke: #c3c3c3; stroke-width: 1; } .l { stroke: 1; } .i { fill: #c2c7ce; stroke: #c2c7ce; } .i.ix { fill: #afb3b6; stroke: #000; } .fa { fill: transparent; overflow: visible; } .fa .bg.hover { fill: #f7f7f7; } .c { cy: 12; r: 4; stroke: #d2d2dc; fill: #d2d2dc; } .hr { fill: transparent; stroke: #323c46; stroke-opacity: 0.035; stroke-width: 13; } .dc { stroke: #fa5a3c; fill: #fa5a3c; } .x { stroke: white; stroke-width: 1; } .hl .th { fill: #1b9bff; } .hl .tht {  } .fhl .bg { fill: #e7f4ff; } .fhls .bg {  } .r.hl { stroke: #1b9bff; } .dim { opacity: 0.25; }</style><g class="drawing-wrapper" transform="translate(200.0952380952386, 219.42428571428533) scale(1,1)"><g class="rs"><path d="M 317.0028571428572 -132.42428571428533 m -1, 0 a 1,1 0 1,0 2,0 a 1,1 0 1,0 -2,0 M 317.0028571428572 -132.42428571428533 m -0.5, 0 a 0.5,0.5 0 1,0 1,0 a 0.5,0.5 0 1,0 -1,0  M317.0028571428572 -132.42428571428533 L317.0028571428572 -132.42428571428533 305.0028571428572 -132.42428571428533 M 317.0028571428572 -126.42428571428533 m -1, 0 a 1,1 0 1,0 2,0 a 1,1 0 1,0 -2,0 M 317.0028571428572 -126.42428571428533 m -0.5, 0 a 0.5,0.5 0 1,0 1,0 a 0.5,0.5 0 1,0 -1,0  M317.0028571428572 -126.42428571428533 L317.0028571428572 -126.42428571428533 310.0028571428572 -132.42428571428533 317.0028571428572 -138.42428571428533 M 317.0028571428572 -138.42428571428533 m -1, 0 a 1,1 0 1,0 2,0 a 1,1 0 1,0 -2,0 M 317.0028571428572 -138.42428571428533 m -0.5, 0 a 0.5,0.5 0 1,0 1,0 a 0.5,0.5 0 1,0 -1,0  M305.0028571428572 -132.42428571428533 Q 230.19 -132.42428571428533, 155.37 -48.67 T 5.73 35.09238095238132 M -6.27 35.09238095238132 m -1, 0 a 1,1 0 1,0 2,0 a 1,1 0 1,0 -2,0 M -6.27 35.09238095238132 m -0.5, 0 a 0.5,0.5 0 1,0 1,0 a 0.5,0.5 0 1,0 -1,0  M-6.27 35.09238095238132 L-6.27 35.09238095238132 5.73 35.09238095238132 M-0.2699999999999996 41.09238095238132 L-0.2699999999999996 41.09238095238132 -0.2699999999999996 29.09238095238132" id="h1139284389" class="r"></path><path d="M 464.17 -107.42428571428533 m -1, 0 a 1,1 0 1,0 2,0 a 1,1 0 1,0 -2,0 M 464.17 -107.42428571428533 m -0.5, 0 a 0.5,0.5 0 1,0 1,0 a 0.5,0.5 0 1,0 -1,0  M464.17 -107.42428571428533 L464.17 -107.42428571428533 476.17 -107.42428571428533 M 464.17 -101.42428571428533 m -1, 0 a 1,1 0 1,0 2,0 a 1,1 0 1,0 -2,0 M 464.17 -101.42428571428533 m -0.5, 0 a 0.5,0.5 0 1,0 1,0 a 0.5,0.5 0 1,0 -1,0  M464.17 -101.42428571428533 L464.17 -101.42428571428533 471.17 -107.42428571428533 464.17 -113.42428571428533 M 464.17 -113.42428571428533 m -1, 0 a 1,1 0 1,0 2,0 a 1,1 0 1,0 -2,0 M 464.17 -113.42428571428533 m -0.5, 0 a 0.5,0.5 0 1,0 1,0 a 0.5,0.5 0 1,0 -1,0  M476.17 -107.42428571428533 Q 514.88 -107.42428571428533, 553.59 -75.07 T 631 -42.72 M 643 -42.72 m -1, 0 a 1,1 0 1,0 2,0 a 1,1 0 1,0 -2,0 M 643 -42.72 m -0.5, 0 a 0.5,0.5 0 1,0 1,0 a 0.5,0.5 0 1,0 -1,0  M643 -42.72 L643 -42.72 631 -42.72 M637 -36.72 L637 -36.72 637 -48.72" id="h1607168654" class="r"></path><path d="M 643 -42.72 m -1, 0 a 1,1 0 1,0 2,0 a 1,1 0 1,0 -2,0 M 643 -42.72 m -0.5, 0 a 0.5,0.5 0 1,0 1,0 a 0.5,0.5 0 1,0 -1,0  M643 -42.72 L643 -42.72 631 -42.72 M 643 -36.72 m -1, 0 a 1,1 0 1,0 2,0 a 1,1 0 1,0 -2,0 M 643 -36.72 m -0.5, 0 a 0.5,0.5 0 1,0 1,0 a 0.5,0.5 0 1,0 -1,0  M643 -36.72 L643 -36.72 636 -42.72 643 -48.72 M 643 -48.72 m -1, 0 a 1,1 0 1,0 2,0 a 1,1 0 1,0 -2,0 M 643 -48.72 m -0.5, 0 a 0.5,0.5 0 1,0 1,0 a 0.5,0.5 0 1,0 -1,0  M631 -42.72 Q 601.92 -42.72, 572.84 -9.7 T 514.6800000000001 23.327619047619393 M 502.68 23.327619047619393 m -1, 0 a 1,1 0 1,0 2,0 a 1,1 0 1,0 -2,0 M 502.68 23.327619047619393 m -0.5, 0 a 0.5,0.5 0 1,0 1,0 a 0.5,0.5 0 1,0 -1,0  M502.68 23.327619047619393 L502.68 23.327619047619393 514.6800000000001 23.327619047619393 M508.68 29.327619047619393 L508.68 29.327619047619393 508.68 17.327619047619393" id="h1950675103" class="r"></path><path d="M 354.5238095238093 150.33761904761903 m -1, 0 a 1,1 0 1,0 2,0 a 1,1 0 1,0 -2,0 M 354.5238095238093 150.33761904761903 m -0.5, 0 a 0.5,0.5 0 1,0 1,0 a 0.5,0.5 0 1,0 -1,0  M354.5238095238093 150.33761904761903 L354.5238095238093 150.33761904761903 342.5238095238093 150.33761904761903 M 354.5238095238093 156.33761904761903 m -1, 0 a 1,1 0 1,0 2,0 a 1,1 0 1,0 -2,0 M 354.5238095238093 156.33761904761903 m -0.5, 0 a 0.5,0.5 0 1,0 1,0 a 0.5,0.5 0 1,0 -1,0  M354.5238095238093 156.33761904761903 L354.5238095238093 156.33761904761903 347.5238095238093 150.33761904761903 354.5238095238093 144.33761904761903 M 354.5238095238093 144.33761904761903 m -1, 0 a 1,1 0 1,0 2,0 a 1,1 0 1,0 -2,0 M 354.5238095238093 144.33761904761903 m -0.5, 0 a 0.5,0.5 0 1,0 1,0 a 0.5,0.5 0 1,0 -1,0  M342.5238095238093 150.33761904761903 Q 258.33 150.33761904761903, 174.13 92.72 T 5.73 35.09238095238132 M -6.27 35.09238095238132 m -1, 0 a 1,1 0 1,0 2,0 a 1,1 0 1,0 -2,0 M -6.27 35.09238095238132 m -0.5, 0 a 0.5,0.5 0 1,0 1,0 a 0.5,0.5 0 1,0 -1,0  M-6.27 35.09238095238132 L-6.27 35.09238095238132 5.73 35.09238095238132 M-0.2699999999999996 41.09238095238132 L-0.2699999999999996 41.09238095238132 -0.2699999999999996 29.09238095238132" id="h3177548053" class="r"></path><path d="M 326.76047619047574 309.61333333333323 m -1, 0 a 1,1 0 1,0 2,0 a 1,1 0 1,0 -2,0 M 326.76047619047574 309.61333333333323 m -0.5, 0 a 0.5,0.5 0 1,0 1,0 a 0.5,0.5 0 1,0 -1,0  M326.76047619047574 309.61333333333323 L326.76047619047574 309.61333333333323 314.76047619047574 309.61333333333323 M 326.76047619047574 315.61333333333323 m -1, 0 a 1,1 0 1,0 2,0 a 1,1 0 1,0 -2,0 M 326.76047619047574 315.61333333333323 m -0.5, 0 a 0.5,0.5 0 1,0 1,0 a 0.5,0.5 0 1,0 -1,0  M326.76047619047574 315.61333333333323 L326.76047619047574 315.61333333333323 319.76047619047574 309.61333333333323 326.76047619047574 303.61333333333323 M 326.76047619047574 303.61333333333323 m -1, 0 a 1,1 0 1,0 2,0 a 1,1 0 1,0 -2,0 M 326.76047619047574 303.61333333333323 m -0.5, 0 a 0.5,0.5 0 1,0 1,0 a 0.5,0.5 0 1,0 -1,0  M314.76047619047574 309.61333333333323 Q 237.51 309.61333333333323, 160.25 184.85 T 5.73 60.09238095238132 M -6.27 60.09238095238132 m -1, 0 a 1,1 0 1,0 2,0 a 1,1 0 1,0 -2,0 M -6.27 60.09238095238132 m -0.5, 0 a 0.5,0.5 0 1,0 1,0 a 0.5,0.5 0 1,0 -1,0  M-6.27 60.09238095238132 L-6.27 60.09238095238132 5.73 60.09238095238132 M-0.2699999999999996 66.09238095238132 L-0.2699999999999996 66.09238095238132 -0.2699999999999996 54.09238095238132" id="h1380879228" class="r"></path><path d="M 355.51095238095166 48.32761904761939 m -1, 0 a 1,1 0 1,0 2,0 a 1,1 0 1,0 -2,0 M 355.51095238095166 48.32761904761939 m -0.5, 0 a 0.5,0.5 0 1,0 1,0 a 0.5,0.5 0 1,0 -1,0  M355.51095238095166 48.32761904761939 L355.51095238095166 48.32761904761939 343.51095238095166 48.32761904761939 M 355.51095238095166 54.32761904761939 m -1, 0 a 1,1 0 1,0 2,0 a 1,1 0 1,0 -2,0 M 355.51095238095166 54.32761904761939 m -0.5, 0 a 0.5,0.5 0 1,0 1,0 a 0.5,0.5 0 1,0 -1,0  M355.51095238095166 54.32761904761939 L355.51095238095166 54.32761904761939 348.51095238095166 48.32761904761939 355.51095238095166 42.32761904761939 M 355.51095238095166 42.32761904761939 m -1, 0 a 1,1 0 1,0 2,0 a 1,1 0 1,0 -2,0 M 355.51095238095166 42.32761904761939 m -0.5, 0 a 0.5,0.5 0 1,0 1,0 a 0.5,0.5 0 1,0 -1,0  M343.51095238095166 48.32761904761939 Q 259.07 48.32761904761939, 174.62 41.71 T 5.73 35.09238095238132 M -6.27 35.09238095238132 m -1, 0 a 1,1 0 1,0 2,0 a 1,1 0 1,0 -2,0 M -6.27 35.09238095238132 m -0.5, 0 a 0.5,0.5 0 1,0 1,0 a 0.5,0.5 0 1,0 -1,0  M-6.27 35.09238095238132 L-6.27 35.09238095238132 5.73 35.09238095238132 M-0.2699999999999996 41.09238095238132 L-0.2699999999999996 41.09238095238132 -0.2699999999999996 29.09238095238132" id="h2286254435" class="r"></path></g><g class="hrs"></g><g class="ts"><svg width="167.17" height="100" x="643" y="-99.72" id="h475896179" class="t"><rect height="40" width="167.17" class="th"></rect><text x="13" y="25" class="tht">departments</text><rect height="60" width="167.17" class="t-bg" y="40"></rect><text x="13" y="61" class="tf pk">dept_no<tspan x="154.17" class="ty">VARCHAR</tspan></text><path d="M7,14A2,2 0 0,1 5,12A2,2 0 0,1 7,10A2,2 0 0,1 9,12A2,2 0 0,1 7,14M12.65,10C11.83,7.67 9.61,6 7, 6A6, 6 0 0, 0 1, 12A6, 6 0 0, 0 7, 18C9.61, 18 11.83, 16.33 12.65, 14H17V18H21V14H23V10H12.65Z" class="i pk" transform="translate(76.37898437499999, 48) scale(0.65)"></path><text x="13" y="86" class="tf">dept_name<tspan x="154.17" class="ty">VARCHAR</tspan></text></svg><svg width="171.83" height="225" x="-178.0952380952386" y="-21.907619047618677" id="h1639608377" class="t"><rect height="40" width="171.83" class="th"></rect><text x="13" y="25" class="tht">employees</text><rect height="185" width="171.83" class="t-bg" y="40"></rect><text x="13" y="61" class="tf pk">emp_no<tspan x="158.83" class="ty">INT</tspan></text><path d="M7,14A2,2 0 0,1 5,12A2,2 0 0,1 7,10A2,2 0 0,1 9,12A2,2 0 0,1 7,14M12.65,10C11.83,7.67 9.61,6 7, 6A6, 6 0 0, 0 1, 12A6, 6 0 0, 0 7, 18C9.61, 18 11.83, 16.33 12.65, 14H17V18H21V14H23V10H12.65Z" class="i pk" transform="translate(119.49992187500001, 48) scale(0.65)"></path><text x="13" y="86" class="tf fk">empt_title_id<tspan x="158.83" class="ty">VARCHAR</tspan></text><text x="13" y="111" class="tf">birth_date<tspan x="158.83" class="ty">DATE</tspan></text><text x="13" y="136" class="tf">first_name<tspan x="158.83" class="ty">VARCHAR</tspan></text><text x="13" y="161" class="tf">last_name<tspan x="158.83" class="ty">VARCHAR</tspan></text><text x="13" y="186" class="tf">sex<tspan x="158.83" class="ty">VARCHAR</tspan></text><text x="13" y="211" class="tf">hire_date<tspan x="158.83" class="ty">DATE</tspan></text></svg><svg width="147.17" height="100" x="317.0028571428572" y="-189.42428571428533" id="h1090417462" class="t"><rect height="40" width="147.17" class="th"></rect><text x="13" y="25" class="tht">dept_emp</text><rect height="60" width="147.17" class="t-bg" y="40"></rect><text x="13" y="61" class="tf pk">emp_no<tspan x="134.17" class="ty">INT</tspan></text><path d="M7,14A2,2 0 0,1 5,12A2,2 0 0,1 7,10A2,2 0 0,1 9,12A2,2 0 0,1 7,14M12.65,10C11.83,7.67 9.61,6 7, 6A6, 6 0 0, 0 1, 12A6, 6 0 0, 0 7, 18C9.61, 18 11.83, 16.33 12.65, 14H17V18H21V14H23V10H12.65Z" class="i pk" transform="translate(94.83992187499999, 48) scale(0.65)"></path><text x="13" y="86" class="tf fk">dept_no<tspan x="134.17" class="ty">VARCHAR</tspan></text></svg><svg width="147.17" height="100" x="355.51095238095166" y="-33.67238095238061" id="h1676682957" class="t"><rect height="40" width="147.17" class="th"></rect><text x="13" y="25" class="tht">dept_manager</text><rect height="60" width="147.17" class="t-bg" y="40"></rect><text x="13" y="61" class="tf fk">dept_no<tspan x="134.17" class="ty">VARCHAR</tspan></text><text x="13" y="86" class="tf fk">emp_no<tspan x="134.17" class="ty">INTEGER</tspan></text></svg><svg width="162.7" height="100" x="354.5238095238093" y="93.33761904761903" id="h2472833127" class="t"><rect height="40" width="162.7" class="th"></rect><text x="13" y="25" class="tht">salaries</text><rect height="60" width="162.7" class="t-bg" y="40"></rect><text x="13" y="61" class="tf pk">emp_no<tspan x="149.7" class="ty">INTEGER</tspan></text><path d="M7,14A2,2 0 0,1 5,12A2,2 0 0,1 7,10A2,2 0 0,1 9,12A2,2 0 0,1 7,14M12.65,10C11.83,7.67 9.61,6 7, 6A6, 6 0 0, 0 1, 12A6, 6 0 0, 0 7, 18C9.61, 18 11.83, 16.33 12.65, 14H17V18H21V14H23V10H12.65Z" class="i pk" transform="translate(76.36210937499999, 48) scale(0.65)"></path><text x="13" y="86" class="tf">salary<tspan x="149.7" class="ty">INTEGER</tspan></text></svg><svg width="158.48" height="100" x="326.76047619047574" y="252.6133333333332" id="h311790747" class="t"><rect height="40" width="158.48" class="th"></rect><text x="13" y="25" class="tht">titles</text><rect height="60" width="158.48" class="t-bg" y="40"></rect><text x="13" y="61" class="tf pk">title_id<tspan x="145.48" class="ty">VARCHAR</tspan></text><path d="M7,14A2,2 0 0,1 5,12A2,2 0 0,1 7,10A2,2 0 0,1 9,12A2,2 0 0,1 7,14M12.65,10C11.83,7.67 9.61,6 7, 6A6, 6 0 0, 0 1, 12A6, 6 0 0, 0 7, 18C9.61, 18 11.83, 16.33 12.65, 14H17V18H21V14H23V10H12.65Z" class="i pk" transform="translate(67.68898437499999, 48) scale(0.65)"></path><text x="13" y="86" class="tf">title<tspan x="145.48" class="ty">VARCHAR</tspan></text></svg></g></g><text class="qdbd-link" x="10" y="20">www.quickdatabasediagrams.com</text></svg>