<svg class="diagram-root" style="background: #f5f6f6" xmlns="http://www.w3.org/2000/svg" xmlns:xlink="http://www.w3.org/1999/xlink"><style>.diagram-root { font-family: "Helvetica Neue", sans-serif; font-size: 12px; } .t { overflow: visible; } .t-bg { y: 40; fill: #fff;   } .th { fill: #005aa0;   } .tht { fill: #fff; font-size: 14px;  } .tf { fill: #323c46; overflow: visible; } .tf.pk { fill: #005aa0; font-weight: bold; } .tf.fk { font-weight: bold; } .ty { fill: #adb1b5; font-weight: normal; text-anchor: end; } .r { fill: transparent; stroke: #c3c3c3; stroke-width: 1; } .l { stroke: 1; } .i { fill: #c2c7ce; stroke: #c2c7ce; } .i.ix { fill: #afb3b6; stroke: #000; } .fa { fill: transparent; overflow: visible; } .fa .bg.hover { fill: #f7f7f7; } .c { cy: 12; r: 4; stroke: #d2d2dc; fill: #d2d2dc; } .hr { fill: transparent; stroke: #323c46; stroke-opacity: 0.035; stroke-width: 13; } .dc { stroke: #fa5a3c; fill: #fa5a3c; } .x { stroke: white; stroke-width: 1; } .hl .th { fill: #1b9bff; } .hl .tht {  } .fhl .bg { fill: #e7f4ff; } .fhls .bg {  } .r.hl { stroke: #1b9bff; } .dim { opacity: 0.25; }</style><g class="drawing-wrapper" transform="translate(200.0952380952386, 219.42428571428533) scale(1,1)"><g class="rs"><path d="M 317 -132.42 m -1, 0 a 1,1 0 1,0 2,0 a 1,1 0 1,0 -2,0 M 317 -132.42 m -0.5, 0 a 0.5,0.5 0 1,0 1,0 a 0.5,0.5 0 1,0 -1,0  M317 -132.42 L317 -132.42 305 -132.42 M 317 -126.41999999999999 m -1, 0 a 1,1 0 1,0 2,0 a 1,1 0 1,0 -2,0 M 317 -126.41999999999999 m -0.5, 0 a 0.5,0.5 0 1,0 1,0 a 0.5,0.5 0 1,0 -1,0  M317 -126.41999999999999 L317 -126.41999999999999 310 -132.42 317 -138.42 M 317 -138.42 m -1, 0 a 1,1 0 1,0 2,0 a 1,1 0 1,0 -2,0 M 317 -138.42 m -0.5, 0 a 0.5,0.5 0 1,0 1,0 a 0.5,0.5 0 1,0 -1,0  M305 -132.42 Q 230.19 -132.42, 155.37 -48.66 T 5.73 35.09 M -6.27 35.09 m -1, 0 a 1,1 0 1,0 2,0 a 1,1 0 1,0 -2,0 M -6.27 35.09 m -0.5, 0 a 0.5,0.5 0 1,0 1,0 a 0.5,0.5 0 1,0 -1,0  M-6.27 35.09 L-6.27 35.09 5.73 35.09 M-0.2699999999999996 41.09 L-0.2699999999999996 41.09 -0.2699999999999996 29.090000000000003" id="h1139284389" class="r"></path><path d="M 464.17 -107.41999999999999 m -1, 0 a 1,1 0 1,0 2,0 a 1,1 0 1,0 -2,0 M 464.17 -107.41999999999999 m -0.5, 0 a 0.5,0.5 0 1,0 1,0 a 0.5,0.5 0 1,0 -1,0  M464.17 -107.41999999999999 L464.17 -107.41999999999999 476.17 -107.41999999999999 M 464.17 -101.41999999999999 m -1, 0 a 1,1 0 1,0 2,0 a 1,1 0 1,0 -2,0 M 464.17 -101.41999999999999 m -0.5, 0 a 0.5,0.5 0 1,0 1,0 a 0.5,0.5 0 1,0 -1,0  M464.17 -101.41999999999999 L464.17 -101.41999999999999 471.17 -107.41999999999999 464.17 -113.41999999999999 M 464.17 -113.41999999999999 m -1, 0 a 1,1 0 1,0 2,0 a 1,1 0 1,0 -2,0 M 464.17 -113.41999999999999 m -0.5, 0 a 0.5,0.5 0 1,0 1,0 a 0.5,0.5 0 1,0 -1,0  M476.17 -107.41999999999999 Q 514.88 -107.41999999999999, 553.59 -75.07 T 631 -42.72 M 643 -42.72 m -1, 0 a 1,1 0 1,0 2,0 a 1,1 0 1,0 -2,0 M 643 -42.72 m -0.5, 0 a 0.5,0.5 0 1,0 1,0 a 0.5,0.5 0 1,0 -1,0  M643 -42.72 L643 -42.72 631 -42.72 M637 -36.72 L637 -36.72 637 -48.72" id="h1607168654" class="r"></path><path d="M 643 -42.72 m -1, 0 a 1,1 0 1,0 2,0 a 1,1 0 1,0 -2,0 M 643 -42.72 m -0.5, 0 a 0.5,0.5 0 1,0 1,0 a 0.5,0.5 0 1,0 -1,0  M643 -42.72 L643 -42.72 631 -42.72 M 643 -36.72 m -1, 0 a 1,1 0 1,0 2,0 a 1,1 0 1,0 -2,0 M 643 -36.72 m -0.5, 0 a 0.5,0.5 0 1,0 1,0 a 0.5,0.5 0 1,0 -1,0  M643 -36.72 L643 -36.72 636 -42.72 643 -48.72 M 643 -48.72 m -1, 0 a 1,1 0 1,0 2,0 a 1,1 0 1,0 -2,0 M 643 -48.72 m -0.5, 0 a 0.5,0.5 0 1,0 1,0 a 0.5,0.5 0 1,0 -1,0  M631 -42.72 Q 601.92 -42.72, 572.84 -9.69 T 514.6800000000001 23.33 M 502.68 23.33 m -1, 0 a 1,1 0 1,0 2,0 a 1,1 0 1,0 -2,0 M 502.68 23.33 m -0.5, 0 a 0.5,0.5 0 1,0 1,0 a 0.5,0.5 0 1,0 -1,0  M502.68 23.33 L502.68 23.33 514.6800000000001 23.33 M508.68 29.33 L508.68 29.33 508.68 17.33" id="h1950675103" class="r"></path><path d="M 354.52 150.34 m -1, 0 a 1,1 0 1,0 2,0 a 1,1 0 1,0 -2,0 M 354.52 150.34 m -0.5, 0 a 0.5,0.5 0 1,0 1,0 a 0.5,0.5 0 1,0 -1,0  M354.52 150.34 L354.52 150.34 342.52 150.34 M 354.52 156.34 m -1, 0 a 1,1 0 1,0 2,0 a 1,1 0 1,0 -2,0 M 354.52 156.34 m -0.5, 0 a 0.5,0.5 0 1,0 1,0 a 0.5,0.5 0 1,0 -1,0  M354.52 156.34 L354.52 156.34 347.52 150.34 354.52 144.34 M 354.52 144.34 m -1, 0 a 1,1 0 1,0 2,0 a 1,1 0 1,0 -2,0 M 354.52 144.34 m -0.5, 0 a 0.5,0.5 0 1,0 1,0 a 0.5,0.5 0 1,0 -1,0  M342.52 150.34 Q 258.33 150.34, 174.13 92.72 T 5.73 35.09 M -6.27 35.09 m -1, 0 a 1,1 0 1,0 2,0 a 1,1 0 1,0 -2,0 M -6.27 35.09 m -0.5, 0 a 0.5,0.5 0 1,0 1,0 a 0.5,0.5 0 1,0 -1,0  M-6.27 35.09 L-6.27 35.09 5.73 35.09 M-0.2699999999999996 41.09 L-0.2699999999999996 41.09 -0.2699999999999996 29.090000000000003" id="h3177548053" class="r"></path><path d="M 326.76 309.61 m -1, 0 a 1,1 0 1,0 2,0 a 1,1 0 1,0 -2,0 M 326.76 309.61 m -0.5, 0 a 0.5,0.5 0 1,0 1,0 a 0.5,0.5 0 1,0 -1,0  M326.76 309.61 L326.76 309.61 314.76 309.61 M 326.76 315.61 m -1, 0 a 1,1 0 1,0 2,0 a 1,1 0 1,0 -2,0 M 326.76 315.61 m -0.5, 0 a 0.5,0.5 0 1,0 1,0 a 0.5,0.5 0 1,0 -1,0  M326.76 315.61 L326.76 315.61 319.76 309.61 326.76 303.61 M 326.76 303.61 m -1, 0 a 1,1 0 1,0 2,0 a 1,1 0 1,0 -2,0 M 326.76 303.61 m -0.5, 0 a 0.5,0.5 0 1,0 1,0 a 0.5,0.5 0 1,0 -1,0  M314.76 309.61 Q 237.51 309.61, 160.25 184.85 T 5.73 60.09 M -6.27 60.09 m -1, 0 a 1,1 0 1,0 2,0 a 1,1 0 1,0 -2,0 M -6.27 60.09 m -0.5, 0 a 0.5,0.5 0 1,0 1,0 a 0.5,0.5 0 1,0 -1,0  M-6.27 60.09 L-6.27 60.09 5.73 60.09 M-0.2699999999999996 66.09 L-0.2699999999999996 66.09 -0.2699999999999996 54.09" id="h1380879228" class="r"></path><path d="M 355.51 48.33 m -1, 0 a 1,1 0 1,0 2,0 a 1,1 0 1,0 -2,0 M 355.51 48.33 m -0.5, 0 a 0.5,0.5 0 1,0 1,0 a 0.5,0.5 0 1,0 -1,0  M355.51 48.33 L355.51 48.33 343.51 48.33 M 355.51 54.33 m -1, 0 a 1,1 0 1,0 2,0 a 1,1 0 1,0 -2,0 M 355.51 54.33 m -0.5, 0 a 0.5,0.5 0 1,0 1,0 a 0.5,0.5 0 1,0 -1,0  M355.51 54.33 L355.51 54.33 348.51 48.33 355.51 42.33 M 355.51 42.33 m -1, 0 a 1,1 0 1,0 2,0 a 1,1 0 1,0 -2,0 M 355.51 42.33 m -0.5, 0 a 0.5,0.5 0 1,0 1,0 a 0.5,0.5 0 1,0 -1,0  M343.51 48.33 Q 259.07 48.33, 174.62 41.71 T 5.73 35.09 M -6.27 35.09 m -1, 0 a 1,1 0 1,0 2,0 a 1,1 0 1,0 -2,0 M -6.27 35.09 m -0.5, 0 a 0.5,0.5 0 1,0 1,0 a 0.5,0.5 0 1,0 -1,0  M-6.27 35.09 L-6.27 35.09 5.73 35.09 M-0.2699999999999996 41.09 L-0.2699999999999996 41.09 -0.2699999999999996 29.090000000000003" id="h2286254435" class="r"></path></g><g class="hrs"></g><g class="ts"><svg width="171.83" height="225" x="-178.1" y="-21.91" id="h1639608377" class="t"><rect height="40" width="171.83" class="th"></rect><text x="13" y="25" class="tht">employees</text><rect height="185" width="171.83" class="t-bg" y="40"></rect><text x="13" y="61" class="tf pk">emp_no<tspan x="158.83" class="ty">INT</tspan></text><path d="M7,14A2,2 0 0,1 5,12A2,2 0 0,1 7,10A2,2 0 0,1 9,12A2,2 0 0,1 7,14M12.65,10C11.83,7.67 9.61,6 7, 6A6, 6 0 0, 0 1, 12A6, 6 0 0, 0 7, 18C9.61, 18 11.83, 16.33 12.65, 14H17V18H21V14H23V10H12.65Z" class="i pk" transform="translate(119.49992187500001, 48) scale(0.65)"></path><text x="13" y="86" class="tf fk">empt_title_id<tspan x="158.83" class="ty">VARCHAR</tspan></text><text x="13" y="111" class="tf">birth_date<tspan x="158.83" class="ty">DATE</tspan></text><text x="13" y="136" class="tf">first_name<tspan x="158.83" class="ty">VARCHAR</tspan></text><text x="13" y="161" class="tf">last_name<tspan x="158.83" class="ty">VARCHAR</tspan></text><text x="13" y="186" class="tf">sex<tspan x="158.83" class="ty">VARCHAR</tspan></text><text x="13" y="211" class="tf">hire_date<tspan x="158.83" class="ty">DATE</tspan></text></svg><svg width="147.17" height="100" x="317" y="-189.42" id="h1090417462" class="t"><rect height="40" width="147.17" class="th"></rect><text x="13" y="25" class="tht">dept_emp</text><rect height="60" width="147.17" class="t-bg" y="40"></rect><text x="13" y="61" class="tf pk">emp_no<tspan x="134.17" class="ty">INT</tspan></text><path d="M7,14A2,2 0 0,1 5,12A2,2 0 0,1 7,10A2,2 0 0,1 9,12A2,2 0 0,1 7,14M12.65,10C11.83,7.67 9.61,6 7, 6A6, 6 0 0, 0 1, 12A6, 6 0 0, 0 7, 18C9.61, 18 11.83, 16.33 12.65, 14H17V18H21V14H23V10H12.65Z" class="i pk" transform="translate(94.83992187499999, 48) scale(0.65)"></path><text x="13" y="86" class="tf fk">dept_no<tspan x="134.17" class="ty">VARCHAR</tspan></text></svg><svg width="167.17" height="100" x="643" y="-99.72" id="h475896179" class="t"><rect height="40" width="167.17" class="th"></rect><text x="13" y="25" class="tht">departments</text><rect height="60" width="167.17" class="t-bg" y="40"></rect><text x="13" y="61" class="tf pk">dept_no<tspan x="154.17" class="ty">VARCHAR</tspan></text><path d="M7,14A2,2 0 0,1 5,12A2,2 0 0,1 7,10A2,2 0 0,1 9,12A2,2 0 0,1 7,14M12.65,10C11.83,7.67 9.61,6 7, 6A6, 6 0 0, 0 1, 12A6, 6 0 0, 0 7, 18C9.61, 18 11.83, 16.33 12.65, 14H17V18H21V14H23V10H12.65Z" class="i pk" transform="translate(76.37898437499999, 48) scale(0.65)"></path><text x="13" y="86" class="tf">dept_name<tspan x="154.17" class="ty">VARCHAR</tspan></text></svg><svg width="162.7" height="100" x="354.52" y="93.34" id="h2472833127" class="t"><rect height="40" width="162.7" class="th"></rect><text x="13" y="25" class="tht">salaries</text><rect height="60" width="162.7" class="t-bg" y="40"></rect><text x="13" y="61" class="tf pk">emp_no<tspan x="149.7" class="ty">INTEGER</tspan></text><path d="M7,14A2,2 0 0,1 5,12A2,2 0 0,1 7,10A2,2 0 0,1 9,12A2,2 0 0,1 7,14M12.65,10C11.83,7.67 9.61,6 7, 6A6, 6 0 0, 0 1, 12A6, 6 0 0, 0 7, 18C9.61, 18 11.83, 16.33 12.65, 14H17V18H21V14H23V10H12.65Z" class="i pk" transform="translate(76.36210937499999, 48) scale(0.65)"></path><text x="13" y="86" class="tf">salary<tspan x="149.7" class="ty">INTEGER</tspan></text></svg><svg width="158.48" height="100" x="326.76" y="252.61" id="h311790747" class="t"><rect height="40" width="158.48" class="th"></rect><text x="13" y="25" class="tht">titles</text><rect height="60" width="158.48" class="t-bg" y="40"></rect><text x="13" y="61" class="tf pk">title_id<tspan x="145.48" class="ty">VARCHAR</tspan></text><path d="M7,14A2,2 0 0,1 5,12A2,2 0 0,1 7,10A2,2 0 0,1 9,12A2,2 0 0,1 7,14M12.65,10C11.83,7.67 9.61,6 7, 6A6, 6 0 0, 0 1, 12A6, 6 0 0, 0 7, 18C9.61, 18 11.83, 16.33 12.65, 14H17V18H21V14H23V10H12.65Z" class="i pk" transform="translate(67.68898437499999, 48) scale(0.65)"></path><text x="13" y="86" class="tf">title<tspan x="145.48" class="ty">VARCHAR</tspan></text></svg><svg width="147.17" height="100" x="355.51" y="-33.67" id="h1676682957" class="t"><rect height="40" width="147.17" class="th"></rect><text x="13" y="25" class="tht">dept_manager</text><rect height="60" width="147.17" class="t-bg" y="40"></rect><text x="13" y="61" class="tf fk">dept_no<tspan x="134.17" class="ty">VARCHAR</tspan></text><text x="13" y="86" class="tf fk">emp_no<tspan x="134.17" class="ty">INTEGER</tspan></text></svg></g></g><text class="qdbd-link" x="10" y="20">www.quickdatabasediagrams.com</text></svg>